o Box
v 0.2562360065955825 0.6404655446197433 1.0120014797809758
v -0.6097893971888562 0.8904655446197433 0.5789887778887564
v 0.96334278778213 0.028093108923948534 -0.7557654731853931
v 0.09731738399769141 0.27809310892394856 -1.1887781750776125
v -0.96334278778213 -0.028093108923948534 0.7557654731853931
v -0.09731738399769141 -0.27809310892394856 1.1887781750776125
v -0.2562360065955825 -0.6404655446197433 -1.0120014797809758
v 0.6097893971888562 -0.8904655446197433 -0.5789887778887564
v -0.96334278778213 -0.028093108923948534 0.7557654731853931
v -0.6097893971888562 0.8904655446197433 0.5789887778887564
v -0.09731738399769141 -0.27809310892394856 1.1887781750776125
v 0.2562360065955825 0.6404655446197433 1.0120014797809758
v 0.6097893971888562 -0.8904655446197433 -0.5789887778887564
v 0.96334278778213 0.028093108923948534 -0.7557654731853931
v -0.2562360065955825 -0.6404655446197433 -1.0120014797809758
v 0.09731738399769141 0.27809310892394856 -1.1887781750776125
v -0.09731738399769141 -0.27809310892394856 1.1887781750776125
v 0.2562360065955825 0.6404655446197433 1.0120014797809758
v 0.6097893971888562 -0.8904655446197433 -0.5789887778887564
v 0.96334278778213 0.028093108923948534 -0.7557654731853931
v -0.6097893971888562 0.8904655446197433 0.5789887778887564
v -0.96334278778213 -0.028093108923948534 0.7557654731853931
v 0.09731738399769141 0.27809310892394856 -1.1887781750776125
v -0.2562360065955825 -0.6404655446197433 -1.0120014797809758
vt 0 1
vt 1 1
vt 0 0
vt 1 0
vt 0 1
vt 1 1
vt 0 0
vt 1 0
vt 0 1
vt 1 1
vt 0 0
vt 1 0
vt 0 1
vt 1 1
vt 0 0
vt 1 0
vt 0 1
vt 1 1
vt 0 0
vt 1 0
vt 0 1
vt 1 1
vt 0 0
vt 1 0
vn 0.3535533905932739 0.9185586535436918 -0.1767766952966369
vn 0.3535533905932739 0.9185586535436918 -0.1767766952966369
vn 0.3535533905932739 0.9185586535436918 -0.1767766952966369
vn 0.3535533905932739 0.9185586535436918 -0.1767766952966369
vn -0.3535533905932739 -0.9185586535436918 0.1767766952966369
vn -0.3535533905932739 -0.9185586535436918 0.1767766952966369
vn -0.3535533905932739 -0.9185586535436918 0.1767766952966369
vn -0.3535533905932739 -0.9185586535436918 0.1767766952966369
vn -0.3535533905932739 0.30618621784789735 0.8838834764831844
vn -0.3535533905932739 0.30618621784789735 0.8838834764831844
vn -0.3535533905932739 0.30618621784789735 0.8838834764831844
vn -0.3535533905932739 0.30618621784789735 0.8838834764831844
vn 0.3535533905932739 -0.30618621784789735 -0.8838834764831844
vn 0.3535533905932739 -0.30618621784789735 -0.8838834764831844
vn 0.3535533905932739 -0.30618621784789735 -0.8838834764831844
vn 0.3535533905932739 -0.30618621784789735 -0.8838834764831844
vn 0.8660254037844387 -0.25000000000000017 0.4330127018922194
vn 0.8660254037844387 -0.25000000000000017 0.4330127018922194
vn 0.8660254037844387 -0.25000000000000017 0.4330127018922194
vn 0.8660254037844387 -0.25000000000000017 0.4330127018922194
vn -0.8660254037844387 0.25000000000000017 -0.4330127018922194
vn -0.8660254037844387 0.25000000000000017 -0.4330127018922194
vn -0.8660254037844387 0.25000000000000017 -0.4330127018922194
vn -0.8660254037844387 0.25000000000000017 -0.4330127018922194
f 1/1/1 3/3/3 2/2/2
f 3/3/3 4/4/4 2/2/2
f 5/5/5 7/7/7 6/6/6
f 7/7/7 8/8/8 6/6/6
f 9/9/9 11/11/11 10/10/10
f 11/11/11 12/12/12 10/10/10
f 13/13/13 15/15/15 14/14/14
f 15/15/15 16/16/16 14/14/14
f 17/17/17 19/19/19 18/18/18
f 19/19/19 20/20/20 18/18/18
f 21/21/21 23/23/23 22/22/22
f 23/23/23 24/24/24 22/22/22
