o Cylinder
v 0 -0.9999999999999999 0.5000000000000002
v 0.30901700258255005 -0.9510565400123595 0.5000000000000002
v 0.5877852439880371 -0.8090170025825499 0.5000000000000002
v 0.80901700258255 -0.587785243988037 0.5000000000000001
v 0.9510565400123596 -0.30901700258254994 0.5000000000000001
v 1 4.978995983325726e-17 0.5
v 0.9510565400123596 0.30901700258255016 0.49999999999999994
v 0.80901700258255 0.5877852439880372 0.4999999999999999
v 0.5877852439880371 0.8090170025825502 0.49999999999999983
v 0.30901700258255005 0.9510565400123597 0.4999999999999998
v 1.2246468525851679e-16 1 0.4999999999999998
v -0.30901700258255005 0.9510565400123597 0.4999999999999998
v -0.5877852439880371 0.8090170025825502 0.49999999999999983
v -0.80901700258255 0.5877852439880372 0.4999999999999999
v -0.9510565400123596 0.30901700258255016 0.49999999999999994
v -1 2.9471931711540103e-16 0.5
v -0.9510565400123596 -0.30901700258254994 0.5000000000000001
v -0.80901700258255 -0.587785243988037 0.5000000000000001
v -0.5877852439880371 -0.8090170025825499 0.5000000000000002
v -0.30901700258255005 -0.9510565400123595 0.5000000000000002
v -2.4492937051703357e-16 -0.9999999999999999 0.5000000000000002
v 0 -1 -0.4999999999999998
v 0.30901700258255005 -0.9510565400123597 -0.4999999999999998
v 0.5877852439880371 -0.8090170025825502 -0.49999999999999983
v 0.80901700258255 -0.5877852439880372 -0.4999999999999999
v 0.9510565400123596 -0.30901700258255016 -0.49999999999999994
v 1 -1.7225464509177405e-16 -0.5
v 0.9510565400123596 0.30901700258254994 -0.5000000000000001
v 0.80901700258255 0.587785243988037 -0.5000000000000001
v 0.5877852439880371 0.8090170025825499 -0.5000000000000002
v 0.30901700258255005 0.9510565400123595 -0.5000000000000002
v 1.2246468525851679e-16 0.9999999999999999 -0.5000000000000002
v -0.30901700258255005 0.9510565400123595 -0.5000000000000002
v -0.5877852439880371 0.8090170025825499 -0.5000000000000002
v -0.80901700258255 0.587785243988037 -0.5000000000000001
v -0.9510565400123596 0.30901700258254994 -0.5000000000000001
v -1 7.267471219036972e-17 -0.5
v -0.9510565400123596 -0.30901700258255016 -0.49999999999999994
v -0.80901700258255 -0.5877852439880372 -0.4999999999999999
v -0.5877852439880371 -0.8090170025825502 -0.49999999999999983
v -0.30901700258255005 -0.9510565400123597 -0.4999999999999998
v -2.4492937051703357e-16 -1 -0.4999999999999998
v 0 1.1102230246251565e-16 0.5
v 0 1.1102230246251565e-16 0.5
v 0 1.1102230246251565e-16 0.5
v 0 1.1102230246251565e-16 0.5
v 0 1.1102230246251565e-16 0.5
v 0 1.1102230246251565e-16 0.5
v 0 1.1102230246251565e-16 0.5
v 0 1.1102230246251565e-16 0.5
v 0 1.1102230246251565e-16 0.5
v 0 1.1102230246251565e-16 0.5
v 0 1.1102230246251565e-16 0.5
v 0 1.1102230246251565e-16 0.5
v 0 1.1102230246251565e-16 0.5
v 0 1.1102230246251565e-16 0.5
v 0 1.1102230246251565e-16 0.5
v 0 1.1102230246251565e-16 0.5
v 0 1.1102230246251565e-16 0.5
v 0 1.1102230246251565e-16 0.5
v 0 1.1102230246251565e-16 0.5
v 0 1.1102230246251565e-16 0.5
v 0 -0.9999999999999999 0.5000000000000002
v 0.30901700258255005 -0.9510565400123595 0.5000000000000002
v 0.5877852439880371 -0.8090170025825499 0.5000000000000002
v 0.80901700258255 -0.587785243988037 0.5000000000000001
v 0.9510565400123596 -0.30901700258254994 0.5000000000000001
v 1 4.978995983325726e-17 0.5
v 0.9510565400123596 0.30901700258255016 0.49999999999999994
v 0.80901700258255 0.5877852439880372 0.4999999999999999
v 0.5877852439880371 0.8090170025825502 0.49999999999999983
v 0.30901700258255005 0.9510565400123597 0.4999999999999998
v 1.2246468525851679e-16 1 0.4999999999999998
v -0.30901700258255005 0.9510565400123597 0.4999999999999998
v -0.5877852439880371 0.8090170025825502 0.49999999999999983
v -0.80901700258255 0.5877852439880372 0.4999999999999999
v -0.9510565400123596 0.30901700258255016 0.49999999999999994
v -1 2.9471931711540103e-16 0.5
v -0.9510565400123596 -0.30901700258254994 0.5000000000000001
v -0.80901700258255 -0.587785243988037 0.5000000000000001
v -0.5877852439880371 -0.8090170025825499 0.5000000000000002
v -0.30901700258255005 -0.9510565400123595 0.5000000000000002
v -2.4492937051703357e-16 -0.9999999999999999 0.5000000000000002
v 0 -1.1102230246251565e-16 -0.5
v 0 -1.1102230246251565e-16 -0.5
v 0 -1.1102230246251565e-16 -0.5
v 0 -1.1102230246251565e-16 -0.5
v 0 -1.1102230246251565e-16 -0.5
v 0 -1.1102230246251565e-16 -0.5
v 0 -1.1102230246251565e-16 -0.5
v 0 -1.1102230246251565e-16 -0.5
v 0 -1.1102230246251565e-16 -0.5
v 0 -1.1102230246251565e-16 -0.5
v 0 -1.1102230246251565e-16 -0.5
v 0 -1.1102230246251565e-16 -0.5
v 0 -1.1102230246251565e-16 -0.5
v 0 -1.1102230246251565e-16 -0.5
v 0 -1.1102230246251565e-16 -0.5
v 0 -1.1102230246251565e-16 -0.5
v 0 -1.1102230246251565e-16 -0.5
v 0 -1.1102230246251565e-16 -0.5
v 0 -1.1102230246251565e-16 -0.5
v 0 -1.1102230246251565e-16 -0.5
v 0 -1 -0.4999999999999998
v 0.30901700258255005 -0.9510565400123597 -0.4999999999999998
v 0.5877852439880371 -0.8090170025825502 -0.49999999999999983
v 0.80901700258255 -0.5877852439880372 -0.4999999999999999
v 0.9510565400123596 -0.30901700258255016 -0.49999999999999994
v 1 -1.7225464509177405e-16 -0.5
v 0.9510565400123596 0.30901700258254994 -0.5000000000000001
v 0.80901700258255 0.587785243988037 -0.5000000000000001
v 0.5877852439880371 0.8090170025825499 -0.5000000000000002
v 0.30901700258255005 0.9510565400123595 -0.5000000000000002
v 1.2246468525851679e-16 0.9999999999999999 -0.5000000000000002
v -0.30901700258255005 0.9510565400123595 -0.5000000000000002
v -0.5877852439880371 0.8090170025825499 -0.5000000000000002
v -0.80901700258255 0.587785243988037 -0.5000000000000001
v -0.9510565400123596 0.30901700258254994 -0.5000000000000001
v -1 7.267471219036972e-17 -0.5
v -0.9510565400123596 -0.30901700258255016 -0.49999999999999994
v -0.80901700258255 -0.5877852439880372 -0.4999999999999999
v -0.5877852439880371 -0.8090170025825502 -0.49999999999999983
v -0.30901700258255005 -0.9510565400123597 -0.4999999999999998
v -2.4492937051703357e-16 -1 -0.4999999999999998
vt 0 1
vt 0.05000000074505806 1
vt 0.10000000149011612 1
vt 0.15000000596046448 1
vt 0.20000000298023224 1
vt 0.25 1
vt 0.30000001192092896 1
vt 0.3499999940395355 1
vt 0.4000000059604645 1
vt 0.44999998807907104 1
vt 0.5 1
vt 0.550000011920929 1
vt 0.6000000238418579 1
vt 0.6499999761581421 1
vt 0.699999988079071 1
vt 0.75 1
vt 0.800000011920929 1
vt 0.8500000238418579 1
vt 0.8999999761581421 1
vt 0.949999988079071 1
vt 1 1
vt 0 0
vt 0.05000000074505806 0
vt 0.10000000149011612 0
vt 0.15000000596046448 0
vt 0.20000000298023224 0
vt 0.25 0
vt 0.30000001192092896 0
vt 0.3499999940395355 0
vt 0.4000000059604645 0
vt 0.44999998807907104 0
vt 0.5 0
vt 0.550000011920929 0
vt 0.6000000238418579 0
vt 0.6499999761581421 0
vt 0.699999988079071 0
vt 0.75 0
vt 0.800000011920929 0
vt 0.8500000238418579 0
vt 0.8999999761581421 0
vt 0.949999988079071 0
vt 1 0
vt 0.5 0.5
vt 0.5 0.5
vt 0.5 0.5
vt 0.5 0.5
vt 0.5 0.5
vt 0.5 0.5
vt 0.5 0.5
vt 0.5 0.5
vt 0.5 0.5
vt 0.5 0.5
vt 0.5 0.5
vt 0.5 0.5
vt 0.5 0.5
vt 0.5 0.5
vt 0.5 0.5
vt 0.5 0.5
vt 0.5 0.5
vt 0.5 0.5
vt 0.5 0.5
vt 0.5 0.5
vt 1 0.5
vt 0.9755282402038574 0.6545084714889526
vt 0.9045084714889526 0.7938926219940186
vt 0.7938926219940186 0.9045084714889526
vt 0.6545084714889526 0.9755282402038574
vt 0.5 1
vt 0.345491498708725 0.9755282402038574
vt 0.20610737800598145 0.9045084714889526
vt 0.09549150615930557 0.7938926219940186
vt 0.024471741169691086 0.6545084714889526
vt 0 0.5
vt 0.024471741169691086 0.345491498708725
vt 0.09549150615930557 0.20610737800598145
vt 0.20610737800598145 0.09549150615930557
vt 0.345491498708725 0.024471741169691086
vt 0.5 0
vt 0.6545084714889526 0.024471741169691086
vt 0.7938926219940186 0.09549150615930557
vt 0.9045084714889526 0.20610737800598145
vt 0.9755282402038574 0.345491498708725
vt 1 0.5
vt 0.5 0.5
vt 0.5 0.5
vt 0.5 0.5
vt 0.5 0.5
vt 0.5 0.5
vt 0.5 0.5
vt 0.5 0.5
vt 0.5 0.5
vt 0.5 0.5
vt 0.5 0.5
vt 0.5 0.5
vt 0.5 0.5
vt 0.5 0.5
vt 0.5 0.5
vt 0.5 0.5
vt 0.5 0.5
vt 0.5 0.5
vt 0.5 0.5
vt 0.5 0.5
vt 0.5 0.5
vt 1 0.5
vt 0.9755282402038574 0.345491498708725
vt 0.9045084714889526 0.20610737800598145
vt 0.7938926219940186 0.09549150615930557
vt 0.6545084714889526 0.024471741169691086
vt 0.5 0
vt 0.345491498708725 0.024471741169691086
vt 0.20610737800598145 0.09549150615930557
vt 0.09549150615930557 0.20610737800598145
vt 0.024471741169691086 0.345491498708725
vt 0 0.5
vt 0.024471741169691086 0.6545084714889526
vt 0.09549150615930557 0.7938926219940186
vt 0.20610737800598145 0.9045084714889526
vt 0.345491498708725 0.9755282402038574
vt 0.5 1
vt 0.6545084714889526 0.9755282402038574
vt 0.7938926219940186 0.9045084714889526
vt 0.9045084714889526 0.7938926219940186
vt 0.9755282402038574 0.6545084714889526
vt 1 0.5
vn 0 -1 2.220446049250313e-16
vn 0.3090169948284817 -0.9510565161477913 2.1117696838941298e-16
vn 0.5877852429542022 -0.8090170011595983 1.796378604001166e-16
vn 0.8090170011595983 -0.5877852429542022 1.3051454205252937e-16
vn 0.9510565161477913 -0.3090169948284817 6.861555653181067e-17
vn 1 -6.123234262925839e-17 1.3596311327747833e-32
vn 0.9510565161477913 0.3090169948284817 -6.861555653181067e-17
vn 0.8090170011595983 0.5877852429542022 -1.3051454205252937e-16
vn 0.5877852429542022 0.8090170011595983 -1.796378604001166e-16
vn 0.3090169948284817 0.9510565161477913 -2.1117696838941298e-16
vn 1.2246468525851679e-16 1 -2.220446049250313e-16
vn -0.3090169948284817 0.9510565161477913 -2.1117696838941298e-16
vn -0.5877852429542022 0.8090170011595983 -1.796378604001166e-16
vn -0.8090170011595983 0.5877852429542022 -1.3051454205252937e-16
vn -0.9510565161477913 0.3090169948284817 -6.861555653181067e-17
vn -1 1.8369701465288538e-16 -4.078893104450762e-32
vn -0.9510565161477913 -0.3090169948284817 6.861555653181067e-17
vn -0.8090170011595983 -0.5877852429542022 1.3051454205252937e-16
vn -0.5877852429542022 -0.8090170011595983 1.796378604001166e-16
vn -0.3090169948284817 -0.9510565161477913 2.1117696838941298e-16
vn -2.4492937051703357e-16 -1 2.220446049250313e-16
vn 0 -1 2.220446049250313e-16
vn 0.3090169948284817 -0.9510565161477913 2.1117696838941298e-16
vn 0.5877852429542022 -0.8090170011595983 1.796378604001166e-16
vn 0.8090170011595983 -0.5877852429542022 1.3051454205252937e-16
vn 0.9510565161477913 -0.3090169948284817 6.861555653181067e-17
vn 1 -6.123234262925839e-17 1.3596311327747833e-32
vn 0.9510565161477913 0.3090169948284817 -6.861555653181067e-17
vn 0.8090170011595983 0.5877852429542022 -1.3051454205252937e-16
vn 0.5877852429542022 0.8090170011595983 -1.796378604001166e-16
vn 0.3090169948284817 0.9510565161477913 -2.1117696838941298e-16
vn 1.2246468525851679e-16 1 -2.220446049250313e-16
vn -0.3090169948284817 0.9510565161477913 -2.1117696838941298e-16
vn -0.5877852429542022 0.8090170011595983 -1.796378604001166e-16
vn -0.8090170011595983 0.5877852429542022 -1.3051454205252937e-16
vn -0.9510565161477913 0.3090169948284817 -6.861555653181067e-17
vn -1 1.8369701465288538e-16 -4.078893104450762e-32
vn -0.9510565161477913 -0.3090169948284817 6.861555653181067e-17
vn -0.8090170011595983 -0.5877852429542022 1.3051454205252937e-16
vn -0.5877852429542022 -0.8090170011595983 1.796378604001166e-16
vn -0.3090169948284817 -0.9510565161477913 2.1117696838941298e-16
vn -2.4492937051703357e-16 -1 2.220446049250313e-16
vn 0 2.220446049250313e-16 1
vn 0 2.220446049250313e-16 1
vn 0 2.220446049250313e-16 1
vn 0 2.220446049250313e-16 1
vn 0 2.220446049250313e-16 1
vn 0 2.220446049250313e-16 1
vn 0 2.220446049250313e-16 1
vn 0 2.220446049250313e-16 1
vn 0 2.220446049250313e-16 1
vn 0 2.220446049250313e-16 1
vn 0 2.220446049250313e-16 1
vn 0 2.220446049250313e-16 1
vn 0 2.220446049250313e-16 1
vn 0 2.220446049250313e-16 1
vn 0 2.220446049250313e-16 1
vn 0 2.220446049250313e-16 1
vn 0 2.220446049250313e-16 1
vn 0 2.220446049250313e-16 1
vn 0 2.220446049250313e-16 1
vn 0 2.220446049250313e-16 1
vn 0 2.220446049250313e-16 1
vn 0 2.220446049250313e-16 1
vn 0 2.220446049250313e-16 1
vn 0 2.220446049250313e-16 1
vn 0 2.220446049250313e-16 1
vn 0 2.220446049250313e-16 1
vn 0 2.220446049250313e-16 1
vn 0 2.220446049250313e-16 1
vn 0 2.220446049250313e-16 1
vn 0 2.220446049250313e-16 1
vn 0 2.220446049250313e-16 1
vn 0 2.220446049250313e-16 1
vn 0 2.220446049250313e-16 1
vn 0 2.220446049250313e-16 1
vn 0 2.220446049250313e-16 1
vn 0 2.220446049250313e-16 1
vn 0 2.220446049250313e-16 1
vn 0 2.220446049250313e-16 1
vn 0 2.220446049250313e-16 1
vn 0 2.220446049250313e-16 1
vn 0 2.220446049250313e-16 1
vn 0 -2.220446049250313e-16 -1
vn 0 -2.220446049250313e-16 -1
vn 0 -2.220446049250313e-16 -1
vn 0 -2.220446049250313e-16 -1
vn 0 -2.220446049250313e-16 -1
vn 0 -2.220446049250313e-16 -1
vn 0 -2.220446049250313e-16 -1
vn 0 -2.220446049250313e-16 -1
vn 0 -2.220446049250313e-16 -1
vn 0 -2.220446049250313e-16 -1
vn 0 -2.220446049250313e-16 -1
vn 0 -2.220446049250313e-16 -1
vn 0 -2.220446049250313e-16 -1
vn 0 -2.220446049250313e-16 -1
vn 0 -2.220446049250313e-16 -1
vn 0 -2.220446049250313e-16 -1
vn 0 -2.220446049250313e-16 -1
vn 0 -2.220446049250313e-16 -1
vn 0 -2.220446049250313e-16 -1
vn 0 -2.220446049250313e-16 -1
vn 0 -2.220446049250313e-16 -1
vn 0 -2.220446049250313e-16 -1
vn 0 -2.220446049250313e-16 -1
vn 0 -2.220446049250313e-16 -1
vn 0 -2.220446049250313e-16 -1
vn 0 -2.220446049250313e-16 -1
vn 0 -2.220446049250313e-16 -1
vn 0 -2.220446049250313e-16 -1
vn 0 -2.220446049250313e-16 -1
vn 0 -2.220446049250313e-16 -1
vn 0 -2.220446049250313e-16 -1
vn 0 -2.220446049250313e-16 -1
vn 0 -2.220446049250313e-16 -1
vn 0 -2.220446049250313e-16 -1
vn 0 -2.220446049250313e-16 -1
vn 0 -2.220446049250313e-16 -1
vn 0 -2.220446049250313e-16 -1
vn 0 -2.220446049250313e-16 -1
vn 0 -2.220446049250313e-16 -1
vn 0 -2.220446049250313e-16 -1
vn 0 -2.220446049250313e-16 -1
f 1/1/1 22/22/22 2/2/2
f 22/22/22 23/23/23 2/2/2
f 2/2/2 23/23/23 3/3/3
f 23/23/23 24/24/24 3/3/3
f 3/3/3 24/24/24 4/4/4
f 24/24/24 25/25/25 4/4/4
f 4/4/4 25/25/25 5/5/5
f 25/25/25 26/26/26 5/5/5
f 5/5/5 26/26/26 6/6/6
f 26/26/26 27/27/27 6/6/6
f 6/6/6 27/27/27 7/7/7
f 27/27/27 28/28/28 7/7/7
f 7/7/7 28/28/28 8/8/8
f 28/28/28 29/29/29 8/8/8
f 8/8/8 29/29/29 9/9/9
f 29/29/29 30/30/30 9/9/9
f 9/9/9 30/30/30 10/10/10
f 30/30/30 31/31/31 10/10/10
f 10/10/10 31/31/31 11/11/11
f 31/31/31 32/32/32 11/11/11
f 11/11/11 32/32/32 12/12/12
f 32/32/32 33/33/33 12/12/12
f 12/12/12 33/33/33 13/13/13
f 33/33/33 34/34/34 13/13/13
f 13/13/13 34/34/34 14/14/14
f 34/34/34 35/35/35 14/14/14
f 14/14/14 35/35/35 15/15/15
f 35/35/35 36/36/36 15/15/15
f 15/15/15 36/36/36 16/16/16
f 36/36/36 37/37/37 16/16/16
f 16/16/16 37/37/37 17/17/17
f 37/37/37 38/38/38 17/17/17
f 17/17/17 38/38/38 18/18/18
f 38/38/38 39/39/39 18/18/18
f 18/18/18 39/39/39 19/19/19
f 39/39/39 40/40/40 19/19/19
f 19/19/19 40/40/40 20/20/20
f 40/40/40 41/41/41 20/20/20
f 20/20/20 41/41/41 21/21/21
f 41/41/41 42/42/42 21/21/21
f 63/63/63 64/64/64 43/43/43
f 64/64/64 65/65/65 44/44/44
f 65/65/65 66/66/66 45/45/45
f 66/66/66 67/67/67 46/46/46
f 67/67/67 68/68/68 47/47/47
f 68/68/68 69/69/69 48/48/48
f 69/69/69 70/70/70 49/49/49
f 70/70/70 71/71/71 50/50/50
f 71/71/71 72/72/72 51/51/51
f 72/72/72 73/73/73 52/52/52
f 73/73/73 74/74/74 53/53/53
f 74/74/74 75/75/75 54/54/54
f 75/75/75 76/76/76 55/55/55
f 76/76/76 77/77/77 56/56/56
f 77/77/77 78/78/78 57/57/57
f 78/78/78 79/79/79 58/58/58
f 79/79/79 80/80/80 59/59/59
f 80/80/80 81/81/81 60/60/60
f 81/81/81 82/82/82 61/61/61
f 82/82/82 83/83/83 62/62/62
f 105/105/105 104/104/104 84/84/84
f 106/106/106 105/105/105 85/85/85
f 107/107/107 106/106/106 86/86/86
f 108/108/108 107/107/107 87/87/87
f 109/109/109 108/108/108 88/88/88
f 110/110/110 109/109/109 89/89/89
f 111/111/111 110/110/110 90/90/90
f 112/112/112 111/111/111 91/91/91
f 113/113/113 112/112/112 92/92/92
f 114/114/114 113/113/113 93/93/93
f 115/115/115 114/114/114 94/94/94
f 116/116/116 115/115/115 95/95/95
f 117/117/117 116/116/116 96/96/96
f 118/118/118 117/117/117 97/97/97
f 119/119/119 118/118/118 98/98/98
f 120/120/120 119/119/119 99/99/99
f 121/121/121 120/120/120 100/100/100
f 122/122/122 121/121/121 101/101/101
f 123/123/123 122/122/122 102/102/102
f 124/124/124 123/123/123 103/103/103
